# xmcd CD database file
#
# Track frame offsets:
#	150
#	12202
#	23649
#	33581
#	45145
#	56501
#	66070
#	75598
#	85516
#	97837
#	109480
#	120576
#	130671
#	138281
#
# Disc length: 2155 seconds
#
# Revision: 2
# Processed by: cddbd v1.5.2PL0 Copyright (c) Steve Scherf et al.
# Submitted via: CDex 1.50Beta7
#
DISCID=9e08690e
DTITLE=Earl Hooker - An Introduciton to Earl Hooker
DYEAR=2006
DGENRE=Blues
TTITLE0=Blue Guitar
TTITLE1=Swear To Tell The Truth
TTITLE2=Blues In D Natural
TTITLE3=Galloping Horses A Lazy Mule
TTITLE4=Universal Rock
TTITLE5=Rockin' With The Kid
TTITLE6=Rockin' Wild
TTITLE7=How Long Can Tis Go On
TTITLE8=These Cotton Pickin' Blues
TTITLE9=The Leading Brand
TTITLE10=Nothing But Good
TTITLE11=The Bight Sounds
TTITLE12=Off The Hook
TTITLE13=Square Dance Rock Parts 1 and 2
EXTD=YEAR: 2006
EXTT0=
EXTT1=
EXTT2=
EXTT3=
EXTT4=
EXTT5=
EXTT6=
EXTT7=
EXTT8=
EXTT9=
EXTT10=
EXTT11=
EXTT12=
EXTT13=
PLAYORDER=
